<svg xmlns="http://www.w3.org/2000/svg" version="1.1" xmlns:xlink="http://www.w3.org/1999/xlink" xmlns:svgjs="http://svgjs.com/svgjs" width="1000" height="1000"><rect width="1000" height="1000" rx="200" ry="200" fill="#00fe8a"></rect><g transform="matrix(33.333333333333336,0,0,33.333333333333336,101.3095000038544,103.96084690093994)"><svg xmlns="http://www.w3.org/2000/svg" version="1.1" xmlns:xlink="http://www.w3.org/1999/xlink" xmlns:svgjs="http://svgjs.com/svgjs" width="24" height="24"><svg viewBox="0 0 24 24" fill="none" xmlns="http://www.w3.org/2000/svg">
  <rect x="-0.228" y="-0.408" width="24.375" height="24.571" style="fill: rgb(0, 254, 138);"></rect>
  <path d="M 19.973 12 C 19.973 16.403 16.403 19.973 12 19.973 C 7.597 19.973 4.027 16.403 4.027 12 C 4.027 7.597 7.597 4.027 12 4.027 C 16.403 4.027 19.973 7.597 19.973 12 Z" stroke-width="2" style="stroke: rgb(51, 145, 255);"></path>
  <path d="M 4.47 11.114 L 6.685 11.114 C 7.663 11.114 8.457 11.907 8.457 12.886 C 8.457 13.864 9.25 14.658 10.228 14.658 C 11.207 14.658 12 15.451 12 16.429 L 12 19.53" stroke-width="2" stroke-linecap="round" stroke-linejoin="round" style="stroke: rgb(51, 145, 255);"></path>
  <path d="M 8.457 4.913 L 8.457 5.799 C 8.457 6.777 9.25 7.571 10.228 7.571 L 10.358 7.571 C 11.265 7.571 12 8.306 12 9.213 C 12 9.835 12.352 10.404 12.908 10.682 L 12.979 10.718 C 13.478 10.967 14.065 10.967 14.564 10.718 L 14.636 10.682 C 15.192 10.404 15.543 9.835 15.543 9.213 C 15.543 8.306 16.279 7.571 17.186 7.571 L 18.644 7.571" stroke-width="2" stroke-linecap="round" stroke-linejoin="round" style="stroke: rgb(51, 145, 255);"></path>
  <path d="M 15.543 18.644 L 15.543 16.429 C 15.543 15.451 16.337 14.658 17.315 14.658 L 19.087 14.658" stroke-width="2" stroke-linecap="round" stroke-linejoin="round" style="stroke: rgb(51, 145, 255);"></path>
</svg></svg></g></svg>